<?xml version="1.0" encoding="utf-8"?>
<!-- Generator: Adobe Illustrator 21.1.0, SVG Export Plug-In . SVG Version: 6.00 Build 0)  -->
<svg version="1.1" id="Layer_1" xmlns="http://www.w3.org/2000/svg" xmlns:xlink="http://www.w3.org/1999/xlink" x="0px" y="0px"
	 viewBox="0 0 249 119.1" style="enable-background:new 0 0 249 119.1;" xml:space="preserve">
<style type="text/css">
	.st0{fill:#029ADD;}
	.st1{fill:#00295D;}
</style>
<title>logo</title>
<path class="st0" d="M33.5,76.3V37.5c0-0.6,0.5-1,1.1-1.1h5.2c0.6,0,1.1,0.5,1.1,1.1v38.8c0,0.6-0.5,1.1-1.1,1.1h-5.2
	C34,77.3,33.5,76.9,33.5,76.3z"/>
<path class="st0" d="M47.5,57.9v-4.7c0-0.6,0.5-1,1.1-1.1h16.7c0.6,0,1,0.5,1.1,1.1v4.7c0,0.6-0.5,1.1-1.1,1.1H48.5
	C47.9,58.9,47.5,58.4,47.5,57.9z"/>
<path class="st0" d="M82.2,60.3l-2.5-1.5c-6.7-3.8-8.4-6.2-8.4-11.4c0-7.3,5.2-11.7,13.5-11.7c5.3,0,10.2,1.8,10.2,3.8v3.8
	c0,0.7-0.3,1-0.7,1c-0.5,0-1-0.2-1.4-0.5l-0.6-0.3c-2.3-1.5-5-2.3-7.7-2.3c-3.9,0-6,1.8-6,5c0,2.6,0.9,3.6,5.6,6.3l3.1,1.8
	c6.4,3.7,8.5,6.6,8.5,11.9c0,7.2-5.5,11.8-13.9,11.8c-6,0-11.5-1.8-11.5-3.9v-3.6c0-0.7,0.3-1.1,0.8-1.1c0.4,0,0.8,0.1,1.2,0.3
	l0.9,0.6c2.5,1.4,5.3,2.1,8.2,2.2c4.3,0,7-2,7-5.5c0-2.3-1.2-4.2-3.8-5.5L82.2,60.3z"/>
<path class="st0" d="M107.6,57.5V58c0,8.9,5.4,14.6,13.6,14.6c3.6-0.2,7-1.3,10.1-3.1l0.7-0.3c0.3-0.2,0.6-0.3,1-0.3
	c0.6,0,1,0.5,1,1.2v3.2c0,2.5-6.6,4.8-13.9,4.8c-12,0-19.7-8-19.7-20.7c0-13.3,7.1-21.6,18.5-21.6c10.6,0,17.5,7.4,17.5,18.5v2.2
	c0,0.6-0.5,1-1.1,1.1L107.6,57.5z M129,52.1v-1c0-6-4.3-10-10.5-10s-10.8,4.5-10.8,11H129z"/>
<path class="st0" d="M149.5,38.4h0.8c0.9,0,1.7-0.3,2.5-0.7c3.9-1.6,6.1-2,9.3-2c8.9,0,14.4,5.2,14.4,13.9v26.6
	c0,0.6-0.5,1.1-1.1,1.1h-5.2c-0.6,0-1.1-0.5-1.1-1.1V50.8c0-6.5-3.1-9.7-9.5-9.7c-6,0-9.3,2-9.3,5.4v29.7c0,0.6-0.5,1.1-1.1,1.1H144
	c-0.6,0-1-0.5-1.1-1.1V37.5c0-0.6,0.5-1.1,1.1-1.1h4c1.2,0,1.5,0.3,1.5,1.3L149.5,38.4z"/>
<path class="st0" d="M194.9,60.3l-2.5-1.5c-6.7-3.8-8.4-6.2-8.4-11.4c0-7.3,5.2-11.7,13.5-11.7c5.3,0,10.2,1.8,10.2,3.8v3.8
	c0,0.7-0.2,1-0.7,1c-0.5,0-1-0.2-1.4-0.5l-0.6-0.3c-2.3-1.5-5-2.3-7.7-2.3c-3.9,0-6,1.8-6,5c0,2.6,0.9,3.6,5.6,6.3l3.1,1.8
	c6.4,3.7,8.5,6.6,8.5,11.9c0,7.2-5.4,11.8-13.9,11.8c-6,0-11.5-1.8-11.5-3.9v-3.6c0-0.7,0.3-1.1,0.8-1.1c0.4,0,0.8,0.1,1.2,0.3
	l0.9,0.6c2.5,1.4,5.3,2.1,8.2,2.2c4.3,0,7-2,7-5.5c0-2.3-1.2-4.2-3.8-5.5L194.9,60.3z"/>
<path class="st0" d="M220.3,57.5V58c0,8.9,5.4,14.6,13.6,14.6c3.6-0.2,7-1.3,10.1-3.1l0.7-0.3c0.3-0.2,0.6-0.3,1-0.3
	c0.6,0,1,0.5,1,1.2v3.2c0,2.5-6.6,4.8-13.9,4.8c-12,0-19.7-8-19.7-20.7c0-13.3,7.1-21.6,18.5-21.6c10.6,0,17.5,7.4,17.5,18.5v2.2
	c0,0.6-0.5,1.1-1.1,1.1H220.3z M241.6,52.1v-1c0-6-4.3-10-10.5-10s-10.8,4.5-10.8,11H241.6z"/>
<path class="st0" d="M17.2,7c0.9,0,1.5,0.7,1.5,1.5c0,0.4-0.2,0.8-0.5,1.1c-7.1,6.8-7.4,18.1-0.7,25.3c0.6,0.6,0.6,1.6-0.1,2.2
	c-0.6,0.6-1.6,0.6-2.2-0.1c-8-8.4-7.7-21.7,0.7-29.7c0,0,0,0,0,0C16.4,7.1,16.8,7,17.2,7"/>
<path class="st0" d="M10.6,0c0.9,0,1.5,0.7,1.5,1.5c0,0,0,0,0,0c0,0.4-0.2,0.8-0.5,1.1c-11,10.5-11.5,27.9-1,38.9
	c0.6,0.6,0.6,1.6-0.1,2.2C10,44.4,9,44.3,8.4,43.7C-3.2,31.4-2.7,12.1,9.5,0.4C9.8,0.1,10.2,0,10.6,0"/>
<path class="st0" d="M23.6,13.7c0.9,0,1.5,0.7,1.5,1.5c0,0.4-0.2,0.8-0.5,1.1c-3.5,3.3-3.6,8.8-0.3,12.3c0.6,0.6,0.6,1.6,0,2.2
	c-0.6,0.6-1.6,0.6-2.2,0c0,0-0.1-0.1-0.1-0.1c-4.5-4.7-4.3-12.2,0.4-16.7C22.8,13.8,23.2,13.7,23.6,13.7"/>
<path class="st0" d="M56.4,7L56.4,7c0.4,0,0.8,0.1,1.1,0.4c8.4,8,8.8,21.3,0.8,29.7c0,0,0,0,0,0c-0.6,0.6-1.6,0.6-2.2,0.1
	c-0.6-0.6-0.6-1.6-0.1-2.2c6.8-7.2,6.5-18.5-0.7-25.4c-0.6-0.6-0.6-1.6,0-2.2C55.5,7.2,55.9,7,56.4,7"/>
<path class="st0" d="M63,0L63,0c0.4,0,0.7,0.2,1,0.4c12.2,11.7,12.8,31,1.1,43.3c-0.6,0.6-1.6,0.6-2.2,0.1c-0.6-0.6-0.6-1.6-0.1-2.2
	l0,0c10.5-11,10-28.5-1-38.9c-0.6-0.6-0.6-1.6,0-2.2c0,0,0,0,0,0C62.2,0.2,62.6,0,63,0"/>
<path class="st0" d="M50,13.7L50,13.7c0.4,0,0.8,0.1,1.1,0.4c4.7,4.5,4.9,11.9,0.4,16.7c-0.6,0.6-1.5,0.7-2.2,0.2
	c-0.6-0.6-0.7-1.5-0.2-2.2c0,0,0.1-0.1,0.1-0.1c3.3-3.5,3.2-9-0.3-12.3c-0.6-0.6-0.6-1.6-0.1-2.2C49.2,13.8,49.6,13.7,50,13.7"/>
<path class="st1" d="M45.2,26.5c-0.5-0.4-1.1-0.5-1.7-0.3l-2-1.4c0.5-0.8,0.8-1.7,0.9-2.7h2.8c0.1,0.3,0.3,0.6,0.5,0.8
	c0.8,0.6,1.9,0.6,2.6,0c0.6-0.8,0.7-1.9,0.1-2.6c-0.6-0.8-1.8-1-2.6-0.3c-0.2,0.1-0.3,0.3-0.4,0.4c-0.1,0.1-0.1,0.2-0.1,0.3h-2.8
	c-0.1-0.9-0.5-1.8-1.1-2.6l1.3-1.1c0.6,0.4,1.5,0.4,2.1-0.1c0.6-0.7,0.4-1.8-0.3-2.4c-0.6-0.7-1.6-0.7-2.3-0.1
	c-0.4,0.4-0.5,1-0.4,1.5l-1.5,1.3c-0.6-0.5-1.4-0.8-2.1-1l0.4-3.4c0.3-0.1,0.6-0.2,0.8-0.4c0.6-0.7,0.5-1.7-0.2-2.4
	c-0.8-0.6-1.9-0.5-2.6,0.1c-0.5,0.7-0.4,1.8,0.3,2.4c0.1,0.1,0.3,0.2,0.4,0.3l-0.4,3.2c-0.9,0-1.8,0.1-2.6,0.4l-1.5-1.8
	c0.2-0.6,0.1-1.3-0.3-1.9c-0.6-0.7-1.6-0.9-2.4-0.3c-0.1,0.1-0.3,0.2-0.4,0.4c-0.4,0.7-0.3,1.7,0.3,2.3c0.5,0.4,1.1,0.6,1.7,0.4
	l1.3,1.5c-0.2,0.1-0.4,0.3-0.6,0.5c-0.6,0.6-1,1.4-1.2,2.2l-2.3-0.1c-0.1-0.4-0.3-0.8-0.6-1c-0.7-0.5-1.9,0-2.5,0.6
	c-0.5,0.7-0.4,1.7,0.2,2.4c0.8,0.6,1.8,0.5,2.5-0.1c0.1-0.1,0.2-0.3,0.3-0.5l2.2,0.1c0,0.7,0.1,1.4,0.4,2.1L30.1,24l0,0
	c-0.8-0.6-1.9-0.5-2.6,0.1c-0.5,0.7-0.4,1.8,0.3,2.4c0.8,0.6,1.8,0.5,2.5-0.1c0.3-0.3,0.4-0.7,0.4-1.1l1.3-0.8
	c0.2,0.4,0.5,0.7,0.8,1c0.4,0.4,0.8,0.7,1.2,0.9l-1.8,3.4c-0.6,0-1.1,0.2-1.5,0.5c-0.5,0.7-0.4,1.8,0.3,2.4c0.8,0.6,1.8,0.5,2.5-0.1
	c0.5-0.7,0.5-1.6,0-2.3l1.8-3.3c0.6,0.2,1.2,0.4,1.8,0.4l0.5,1.5l-0.2,0.1c-0.5,0.7-0.4,1.8,0.3,2.4c0.8,0.6,1.8,0.5,2.5-0.1
	c0.6-0.7,0.5-1.7-0.1-2.4c-0.3-0.3-0.8-0.4-1.2-0.4l-0.4-1.3c0.8-0.2,1.4-0.6,2-1.1l0.3-0.4l1.8,1.3c-0.3,0.6-0.1,1.4,0.3,1.9
	c0.8,0.6,1.8,0.5,2.5-0.1C45.9,28.2,45.9,27.1,45.2,26.5z"/>
<path class="st1" d="M75.2,98.1H72v2.9h3.5v0.9H71v-8h4.3v0.9H72v2.5h3.1L75.2,98.1z"/>
<path class="st1" d="M76.8,94c0.7-0.1,1.3-0.2,2-0.2c0.8-0.1,1.6,0.2,2.3,0.7c0.5,0.4,0.7,1,0.7,1.7c0,0.6-0.2,1.2-0.6,1.7
	c-0.7,0.6-1.5,0.9-2.5,0.9c-0.3,0-0.6,0-0.8-0.1v3.2h-1L76.8,94z M77.8,97.9c0.3,0.1,0.6,0.1,0.9,0.1c1.3,0,2-0.6,2-1.7
	s-0.8-1.6-1.9-1.6c-0.3,0-0.7,0-1,0.1L77.8,97.9z"/>
<path class="st1" d="M83,100.6c0.6,0.3,1.2,0.5,1.9,0.5c1.1,0,1.7-0.6,1.7-1.4c0-0.8-0.4-1.2-1.5-1.6c-1.3-0.5-2.1-1.1-2.1-2.3
	c0.1-1.3,1.1-2.3,2.4-2.2c0.1,0,0.1,0,0.2,0c0.6,0,1.2,0.1,1.8,0.4L87,95c-0.5-0.3-1-0.4-1.5-0.4c-1.1,0-1.5,0.7-1.5,1.2
	c0,0.8,0.5,1.1,1.6,1.6c1.4,0.5,2,1.2,2,2.4c0,1.2-0.9,2.3-2.8,2.3c-0.7,0-1.4-0.2-2-0.5L83,100.6z"/>
<path class="st1" d="M89,94c0.7-0.1,1.3-0.2,2-0.2c0.8-0.1,1.7,0.1,2.3,0.7c0.4,0.4,0.6,0.9,0.6,1.5c0,0.9-0.6,1.7-1.5,2l0,0
	c0.7,0.3,1.1,1,1.2,1.7c0.1,0.8,0.3,1.5,0.6,2.2h-1.1c-0.2-0.6-0.4-1.3-0.5-1.9c-0.2-1.1-0.7-1.5-1.6-1.6h-1v3.5h-1V94z M90,97.7
	h1.1c1.1,0,1.8-0.6,1.8-1.5c0-0.9-0.8-1.5-1.9-1.5c-0.3,0-0.7,0-1,0.1L90,97.7z"/>
<path class="st1" d="M101,101.6c-0.7,0.3-1.4,0.4-2.1,0.4c-2.1,0.1-3.9-1.4-4-3.5c0-0.2,0-0.4,0-0.6c-0.1-2.2,1.6-4.1,3.8-4.2
	c0.1,0,0.3,0,0.4,0c0.7,0,1.3,0.1,1.9,0.4l-0.3,0.9c-0.5-0.2-1.1-0.3-1.6-0.3c-1.7-0.1-3,1.2-3.1,2.9c0,0.1,0,0.3,0,0.4
	c-0.2,1.6,1,3,2.6,3.2c0.2,0,0.3,0,0.5,0c0.6,0,1.2-0.1,1.7-0.3L101,101.6z"/>
<path class="st1" d="M105.8,93.9v8h-1v-8H105.8z"/>
<path class="st1" d="M107.6,94c0.7-0.1,1.3-0.2,2-0.2c0.8-0.1,1.7,0.1,2.3,0.7c0.4,0.4,0.6,0.9,0.6,1.5c0,0.9-0.6,1.7-1.5,2l0,0
	c0.7,0.3,1.1,0.9,1.2,1.6c0.1,0.8,0.3,1.5,0.6,2.2h-1.1c-0.2-0.6-0.4-1.3-0.5-1.9c-0.2-1.1-0.7-1.5-1.6-1.6h-1v3.5h-1L107.6,94z
	 M108.6,97.7h1.1c1.1,0,1.8-0.6,1.8-1.5c0-0.9-0.8-1.5-1.9-1.5c-0.3,0-0.7,0-1,0.1L108.6,97.7z"/>
<path class="st1" d="M119.6,101.6c-0.7,0.3-1.4,0.4-2.1,0.4c-2.1,0.1-3.9-1.4-4-3.5c0-0.2,0-0.4,0-0.6c-0.1-2.2,1.6-4.1,3.8-4.2
	c0.1,0,0.3,0,0.4,0c0.7,0,1.3,0.1,1.9,0.4l-0.3,0.9c-0.5-0.2-1.1-0.3-1.6-0.3c-1.7-0.1-3.1,1.2-3.1,2.9c0,0.2,0,0.3,0,0.5
	c-0.2,1.6,1,3,2.6,3.2c0.2,0,0.3,0,0.5,0c0.6,0,1.2-0.1,1.7-0.3L119.6,101.6z"/>
<path class="st1" d="M124.5,94.5c0,0.4-0.3,0.7-0.7,0.7c-0.4,0-0.7-0.3-0.7-0.7c0-0.4,0.3-0.6,0.6-0.7c0,0,0,0,0,0
	C124.2,93.9,124.5,94.1,124.5,94.5C124.5,94.5,124.5,94.5,124.5,94.5z M123.4,101.9v-5.8h1v5.8L123.4,101.9z"/>
<path class="st1" d="M126.1,97.7c0-0.6,0-1.1,0-1.6h0.9l0.1,1l0,0c0.4-0.7,1.1-1.2,1.9-1.2c0.8,0,2,0.5,2,2.5v3.4h-1v-3.3
	c0-0.9-0.3-1.7-1.3-1.7c-0.7,0-1.2,0.4-1.4,1.1c0,0.2-0.1,0.3-0.1,0.5v3.5h-1L126.1,97.7z"/>
<path class="st1" d="M139.4,98.1h-3.1v2.9h3.5v0.9h-4.5v-8h4.3v0.9h-3.3v2.5h3.1L139.4,98.1z"/>
<path class="st1" d="M144.2,101.9l-0.1-0.7l0,0c-0.4,0.6-1.1,0.9-1.8,0.9c-0.9,0.1-1.7-0.6-1.8-1.5c0,0,0-0.1,0-0.1
	c0-1.4,1.2-2.2,3.5-2.1v-0.1c0.1-0.7-0.4-1.2-1-1.3c-0.1,0-0.2,0-0.3,0c-0.5,0-1,0.2-1.5,0.4l-0.2-0.7c0.6-0.3,1.2-0.5,1.9-0.5
	c1.8,0,2.2,1.2,2.2,2.4v2.2c0,0.5,0,0.9,0.1,1.4L144.2,101.9z M144.1,99c-1.1,0-2.4,0.2-2.4,1.3c0,0.5,0.3,1,0.9,1c0,0,0.1,0,0.1,0
	c0.6,0,1.2-0.4,1.4-1c0-0.1,0.1-0.2,0.1-0.3L144.1,99z"/>
<path class="st1" d="M146.8,97.9c0-0.7,0-1.3,0-1.8h0.9v1.1l0,0c0.2-0.7,0.9-1.2,1.6-1.3c0.1,0,0.2,0,0.3,0v1c-0.1,0-0.2,0-0.4,0
	c-0.7,0-1.3,0.6-1.4,1.4c0,0.2,0,0.3,0,0.5v3.1h-1L146.8,97.9z"/>
<path class="st1" d="M150.7,93.5h1v8.5h-1V93.5z"/>
<path class="st1" d="M153.8,96.2l1.3,3.4c0.1,0.4,0.3,0.8,0.4,1.2l0,0c0.1-0.3,0.2-0.8,0.4-1.2l1.2-3.4h1.1l-1.6,4.1
	c-0.8,2-1.3,3-2,3.6c-0.4,0.3-0.8,0.6-1.3,0.7l-0.3-0.9c0.3-0.1,0.6-0.3,0.9-0.5c0.4-0.3,0.7-0.7,0.9-1.2c0-0.1,0.1-0.2,0.1-0.3
	c0-0.1,0-0.2-0.1-0.3l-2.1-5.3L153.8,96.2z"/>
<path class="st1" d="M162.5,101.9l-2-8h1.1l1,4.1c0.2,1,0.5,2,0.6,2.8l0,0c0.1-0.8,0.4-1.8,0.6-2.8l1.1-4h1.1l1,4.1
	c0.2,1,0.4,1.9,0.6,2.8l0,0c0.2-0.9,0.4-1.8,0.6-2.8l1.1-4h1.1l-2.3,8h-1.1l-1-4.2c-0.2-0.9-0.4-1.7-0.5-2.6l0,0
	c-0.2,0.9-0.4,1.8-0.6,2.6l-1.1,4.2L162.5,101.9z"/>
<path class="st1" d="M174,101.9l-0.1-0.7l0,0c-0.4,0.6-1.1,0.9-1.8,0.9c-0.9,0.1-1.7-0.6-1.8-1.5c0,0,0-0.1,0-0.1
	c0-1.4,1.2-2.2,3.5-2.1v-0.1c0.1-0.7-0.4-1.2-1-1.3c-0.1,0-0.2,0-0.3,0c-0.5,0-1,0.2-1.5,0.4l-0.2-0.7c0.6-0.3,1.2-0.5,1.9-0.5
	c1.8,0,2.2,1.2,2.2,2.4v2.2c0,0.5,0,0.9,0.1,1.4L174,101.9z M173.8,99c-1.1,0-2.4,0.2-2.4,1.3c0,0.5,0.3,1,0.9,1c0,0,0.1,0,0.1,0
	c0.6,0,1.2-0.4,1.4-1c0-0.1,0.1-0.2,0.1-0.3L173.8,99z"/>
<path class="st1" d="M176.5,97.9c0-0.7,0-1.3,0-1.8h0.9v1.1l0,0c0.2-0.7,0.8-1.2,1.6-1.3c0.1,0,0.2,0,0.3,0v1c-0.1,0-0.2,0-0.4,0
	c-0.7,0-1.3,0.6-1.4,1.4c0,0.2,0,0.3,0,0.5v3.1h-1L176.5,97.9z"/>
<path class="st1" d="M180.4,97.7c0-0.6,0-1.1,0-1.6h0.9l0.1,1l0,0c0.4-0.7,1.1-1.1,1.9-1.1c0.8,0,2,0.5,2,2.5v3.4h-1v-3.4
	c0-0.9-0.3-1.7-1.3-1.7c-0.7,0-1.2,0.4-1.4,1.1c0,0.2-0.1,0.3-0.1,0.5v3.5h-1L180.4,97.7z"/>
<path class="st1" d="M188.1,94.5c0,0.4-0.3,0.7-0.7,0.7s-0.7-0.3-0.7-0.7c0-0.4,0.3-0.6,0.6-0.7c0,0,0,0,0,0
	C187.8,93.9,188.1,94.1,188.1,94.5C188.1,94.5,188.1,94.5,188.1,94.5z M187,101.9v-5.8h1v5.8H187z"/>
<path class="st1" d="M189.7,97.7c0-0.6,0-1.1,0-1.6h0.9l0.1,1l0,0c0.4-0.7,1.1-1.1,1.9-1.1c0.8,0,2,0.5,2,2.5v3.4h-1v-3.4
	c0-0.9-0.3-1.7-1.3-1.7c-0.7,0-1.2,0.4-1.4,1.1c0,0.2-0.1,0.3-0.1,0.5v3.5h-1L189.7,97.7z"/>
<path class="st1" d="M201.3,96.2c0,0.4,0,0.9,0,1.6v3.3c0.1,1-0.2,1.9-0.8,2.6c-0.6,0.5-1.3,0.7-2.1,0.7c-0.7,0-1.3-0.1-1.9-0.5
	l0.3-0.8c0.5,0.3,1.1,0.5,1.7,0.5c1.1,0,1.9-0.6,1.9-2v-0.6l0,0c-0.4,0.6-1.1,1-1.8,1c-1.4-0.1-2.5-1.3-2.5-2.7c0,0,0-0.1,0-0.1
	c-0.2-1.5,0.9-2.9,2.4-3.1c0,0,0.1,0,0.1,0c0.7,0,1.4,0.3,1.8,1l0,0v-0.9L201.3,96.2z M200.2,98.4c0-0.2,0-0.3-0.1-0.5
	c-0.2-0.7-0.8-1.1-1.5-1.1c-1,0-1.7,0.9-1.7,2.2c0,1.1,0.6,2.1,1.7,2.1c0.7,0,1.3-0.4,1.5-1.1c0.1-0.2,0.1-0.4,0.1-0.6L200.2,98.4z"
	/>
<path class="st1" d="M205.3,100.6c0.6,0.3,1.2,0.5,1.9,0.5c1.1,0,1.7-0.6,1.7-1.4c0-0.8-0.4-1.2-1.5-1.6c-1.3-0.5-2.1-1.1-2.1-2.3
	c0.1-1.3,1.1-2.3,2.4-2.2c0.1,0,0.1,0,0.2,0c0.6,0,1.2,0.1,1.8,0.4l-0.3,0.9c-0.5-0.3-1-0.4-1.5-0.4c-1.1,0-1.5,0.7-1.5,1.2
	c0,0.8,0.5,1.1,1.6,1.6c1.4,0.5,2,1.2,2,2.4c0,1.2-0.9,2.3-2.8,2.3c-0.7,0-1.4-0.2-2-0.5L205.3,100.6z"/>
<path class="st1" d="M212,99.2c-0.1,1,0.7,1.9,1.7,2c0.1,0,0.2,0,0.3,0c0.5,0,1.1-0.1,1.6-0.3l0.2,0.8c-0.6,0.3-1.3,0.4-1.9,0.4
	c-1.5,0.1-2.7-1-2.8-2.5c0-0.1,0-0.3,0-0.4c0-1.7,1-3.1,2.7-3.1c1.3,0.1,2.4,1.2,2.3,2.5c0,0.1,0,0.1,0,0.2c0,0.2,0,0.3,0,0.5H212z
	 M215,98.5c0.1-0.8-0.5-1.6-1.3-1.7c-0.1,0-0.1,0-0.2,0c-0.9,0.1-1.6,0.8-1.6,1.7H215z"/>
<path class="st1" d="M217.3,97.7c0-0.6,0-1.1,0-1.6h0.9l0.1,1l0,0c0.4-0.7,1.1-1.1,1.9-1.1c0.8,0,2,0.5,2,2.5v3.4h-1v-3.4
	c0-0.9-0.3-1.7-1.3-1.7c-0.7,0-1.2,0.4-1.4,1.1c0,0.2-0.1,0.3-0.1,0.5v3.5h-1L217.3,97.7z"/>
<path class="st1" d="M223.7,100.8c0.4,0.3,0.9,0.4,1.4,0.4c0.8,0,1.1-0.4,1.1-0.9s-0.3-0.8-1.1-1.1c-1-0.4-1.5-0.9-1.5-1.6
	c0-1,0.9-1.7,1.9-1.7c0,0,0.1,0,0.1,0c0.5,0,1,0.1,1.4,0.4l-0.3,0.8c-0.4-0.2-0.8-0.3-1.2-0.3c-0.6,0-1,0.4-1,0.8
	c0,0.4,0.3,0.7,1.1,1c1,0.4,1.5,0.9,1.5,1.7c0,1-0.8,1.7-2.2,1.7c-0.6,0-1.1-0.1-1.6-0.4L223.7,100.8z"/>
<path class="st1" d="M229.7,94.5c0,0.4-0.3,0.7-0.7,0.7c-0.4,0-0.7-0.3-0.7-0.7c0-0.4,0.3-0.6,0.6-0.7c0,0,0,0,0,0
	C229.4,93.9,229.7,94.1,229.7,94.5C229.7,94.5,229.7,94.5,229.7,94.5z M228.6,101.9v-5.8h1v5.8L228.6,101.9z"/>
<path class="st1" d="M231.3,97.7c0-0.6,0-1.1,0-1.6h0.9l0.1,1l0,0c0.4-0.7,1.1-1.1,1.9-1.2c0.8,0,2,0.5,2,2.5v3.4h-1v-3.3
	c0-0.9-0.3-1.7-1.3-1.7c-0.7,0-1.2,0.4-1.4,1.1c0,0.2-0.1,0.3-0.1,0.5v3.5h-1L231.3,97.7z"/>
<path class="st1" d="M242.9,96.2c0,0.4,0,0.9,0,1.6v3.3c0.1,1-0.2,1.9-0.8,2.6c-0.6,0.5-1.3,0.7-2.1,0.7c-0.7,0-1.3-0.1-1.9-0.5
	l0.3-0.8c0.5,0.3,1.1,0.5,1.7,0.5c1.1,0,1.9-0.6,1.9-2v-0.6l0,0c-0.4,0.6-1.1,1-1.8,1c-1.4-0.1-2.5-1.3-2.5-2.7c0,0,0-0.1,0-0.1
	c-0.2-1.5,0.9-2.9,2.4-3.1c0,0,0.1,0,0.1,0c0.7,0,1.4,0.3,1.8,1l0,0v-0.9L242.9,96.2z M241.8,98.4c0-0.2,0-0.3-0.1-0.5
	c-0.2-0.7-0.8-1.1-1.5-1.1c-1,0-1.7,0.9-1.7,2.2c0,1.1,0.6,2.1,1.7,2.1c0.7,0,1.3-0.4,1.5-1.1c0.1-0.2,0.1-0.4,0.1-0.6L241.8,98.4z"
	/>
<path class="st1" d="M70.9,115.2c0.6,0.3,1.2,0.5,1.9,0.5c1.1,0,1.7-0.6,1.7-1.4c0-0.8-0.4-1.2-1.5-1.6c-1.3-0.5-2.1-1.1-2.1-2.3
	c0.1-1.3,1.1-2.3,2.4-2.2c0.1,0,0.1,0,0.2,0c0.6,0,1.2,0.1,1.8,0.4l-0.3,0.9c-0.5-0.3-1-0.4-1.5-0.4c-1.1,0-1.5,0.7-1.5,1.2
	c0,0.8,0.5,1.1,1.6,1.6c1.4,0.5,2,1.2,2,2.4s-0.9,2.3-2.8,2.3c-0.7,0-1.4-0.2-2-0.5L70.9,115.2z"/>
<path class="st1" d="M77.8,110.7l1.3,3.4c0.1,0.4,0.3,0.8,0.4,1.2l0,0c0.1-0.4,0.2-0.8,0.4-1.2l1.2-3.4h1.1l-1.6,4.1
	c-0.8,2-1.3,3-2,3.6c-0.4,0.3-0.8,0.6-1.3,0.7l-0.3-0.9c0.3-0.1,0.6-0.3,0.9-0.5c0.4-0.3,0.7-0.7,0.9-1.2c0-0.1,0.1-0.2,0.1-0.3
	c0-0.1,0-0.2-0.1-0.3l-2.1-5.3L77.8,110.7z"/>
<path class="st1" d="M83.5,115.4c0.4,0.3,0.9,0.4,1.4,0.4c0.8,0,1.1-0.4,1.1-0.9s-0.3-0.8-1.1-1.1c-1-0.4-1.5-0.9-1.5-1.6
	c0-1,0.9-1.7,1.9-1.7c0,0,0.1,0,0.1,0c0.5,0,1,0.1,1.4,0.4l-0.3,0.8c-0.4-0.2-0.8-0.3-1.2-0.3c-0.6,0-1,0.4-1,0.8s0.4,0.7,1.1,1
	c1,0.4,1.5,0.9,1.5,1.7c0,1-0.8,1.7-2.2,1.7c-0.6,0-1.1-0.1-1.6-0.4L83.5,115.4z"/>
<path class="st1" d="M90.3,109.1v1.7h1.5v0.8h-1.5v3.1c0,0.7,0.2,1.1,0.8,1.1c0.2,0,0.4,0,0.6-0.1v0.8c-0.3,0.1-0.6,0.2-0.9,0.1
	c-0.4,0-0.8-0.1-1.1-0.4c-0.3-0.4-0.5-1-0.4-1.5v-3.1h-0.9v-0.8h0.9v-1.4L90.3,109.1z"/>
<path class="st1" d="M94.1,113.8c-0.1,1,0.7,1.9,1.7,2c0.1,0,0.2,0,0.3,0c0.5,0,1.1-0.1,1.6-0.3l0.2,0.8c-0.6,0.3-1.3,0.4-1.9,0.4
	c-1.5,0.1-2.7-1-2.8-2.5c0-0.1,0-0.3,0-0.4c0-1.7,1-3.1,2.7-3.1c1.3,0,2.4,1.1,2.4,2.5c0,0.1,0,0.2,0,0.2c0,0.2,0,0.3,0,0.5
	L94.1,113.8z M97.2,113c0.1-0.8-0.5-1.6-1.3-1.7c-0.1,0-0.1,0-0.2,0c-0.9,0.1-1.6,0.8-1.6,1.7H97.2z"/>
<path class="st1" d="M100.2,112.3c0-0.6,0-1.1,0-1.6h0.8v0.9l0,0c0.4-0.7,1.1-1.1,1.8-1.1c0.7,0,1.4,0.5,1.6,1.2l0,0
	c0.2-0.3,0.4-0.5,0.6-0.8c0.4-0.3,0.8-0.4,1.3-0.4c0.8,0,1.9,0.5,1.9,2.5v3.4h-1v-3.3c0-1.1-0.4-1.8-1.3-1.8c-0.6,0-1.1,0.4-1.2,1
	c-0.1,0.2-0.1,0.3-0.1,0.5v3.6h-1V113c0-0.9-0.4-1.6-1.2-1.6c-0.8,0.1-1.4,0.8-1.4,1.6v3.5h-1L100.2,112.3z"/>
<path class="st1" d="M110.6,115.4c0.4,0.3,0.9,0.4,1.4,0.4c0.8,0,1.1-0.4,1.1-0.9s-0.3-0.8-1.1-1.1c-1-0.4-1.5-0.9-1.5-1.6
	c0-1,0.9-1.7,1.9-1.7c0,0,0.1,0,0.1,0c0.5,0,1,0.1,1.4,0.4l-0.3,0.8c-0.4-0.2-0.8-0.3-1.2-0.3c-0.6,0-1,0.4-1,0.8s0.3,0.7,1.1,1
	c1,0.4,1.5,0.9,1.5,1.7c0,1-0.8,1.7-2.2,1.7c-0.6,0-1.1-0.1-1.6-0.4L110.6,115.4z"/>
<path class="st1" d="M119.4,116.5v-5h-0.8v-0.8h0.8v-0.3c-0.1-0.7,0.2-1.5,0.7-2c0.4-0.4,0.9-0.5,1.4-0.5c0.3,0,0.6,0.1,0.9,0.2
	l-0.1,0.8c-0.2-0.1-0.4-0.1-0.7-0.1c-0.9,0-1.1,0.8-1.1,1.7v0.3h1.4v0.8h-1.4v5L119.4,116.5z"/>
<path class="st1" d="M128.5,113.6c0.1,1.6-1,2.9-2.6,3.1c-0.1,0-0.2,0-0.3,0c-1.5,0-2.8-1.2-2.8-2.7c0-0.1,0-0.2,0-0.3
	c-0.1-1.5,1-2.9,2.5-3c0.1,0,0.2,0,0.3,0c1.5,0,2.8,1.2,2.8,2.7C128.5,113.3,128.5,113.4,128.5,113.6z M124,113.6
	c0,1.3,0.7,2.2,1.8,2.2s1.8-0.9,1.8-2.2c0-1-0.5-2.2-1.7-2.2C124.5,111.4,124,112.5,124,113.6L124,113.6z"/>
<path class="st1" d="M130.5,112.5c0-0.7,0-1.3,0-1.8h0.9v1.1l0,0c0.2-0.7,0.8-1.2,1.6-1.3c0.1,0,0.2,0,0.3,0v1c-0.1,0-0.2,0-0.4,0
	c-0.7,0-1.3,0.6-1.4,1.4c0,0.2,0,0.3,0,0.5v3.1h-1L130.5,112.5z"/>
<path class="st1" d="M139.3,108.5v8h-1v-8H139.3z"/>
<path class="st1" d="M141.9,112.3c0-0.6,0-1.1,0-1.6h0.9l0.1,1l0,0c0.4-0.7,1.1-1.1,1.9-1.1c0.8,0,2,0.5,2,2.5v3.4h-1v-3.3
	c0-0.9-0.3-1.7-1.3-1.7c-0.7,0-1.2,0.4-1.4,1.1c0,0.2-0.1,0.3-0.1,0.5v3.5h-1L141.9,112.3z"/>
<path class="st1" d="M149.3,116.5v-5h-0.8v-0.8h0.8v-0.3c-0.1-0.7,0.2-1.5,0.7-2c0.4-0.4,0.9-0.5,1.4-0.5c0.3,0,0.6,0.1,0.9,0.2
	l-0.1,0.8c-0.2-0.1-0.4-0.1-0.7-0.1c-0.9,0-1.1,0.8-1.1,1.7v0.3h1.4v0.8h-1.4v5L149.3,116.5z"/>
<path class="st1" d="M153.7,113.8c-0.1,1,0.7,1.9,1.7,2c0.1,0,0.2,0,0.3,0c0.5,0,1.1-0.1,1.6-0.3l0.2,0.8c-0.6,0.3-1.3,0.4-1.9,0.4
	c-1.5,0.1-2.7-1-2.8-2.5c0-0.1,0-0.3,0-0.4c0-1.7,1-3.1,2.7-3.1c1.3,0,2.4,1.1,2.4,2.5c0,0.1,0,0.2,0,0.2c0,0.2,0,0.3,0,0.5
	L153.7,113.8z M156.8,113c0.1-0.8-0.5-1.6-1.3-1.7c-0.1,0-0.1,0-0.2,0c-0.9,0.1-1.6,0.8-1.6,1.7H156.8z"/>
<path class="st1" d="M163.9,116.3c-0.5,0.2-1.1,0.3-1.7,0.3c-1.5,0.1-2.8-1.1-2.9-2.6c0-0.1,0-0.2,0-0.3c-0.1-1.6,1.2-3,2.8-3.1
	c0.1,0,0.2,0,0.3,0c0.5,0,1,0.1,1.5,0.3l-0.2,0.8c-0.4-0.2-0.8-0.3-1.2-0.3c-1.2,0.1-2.1,1.1-2,2.3c0.1,1.1,0.9,1.9,2,2
	c0.4,0,0.9-0.1,1.3-0.3L163.9,116.3z"/>
<path class="st1" d="M167.2,109.1v1.7h1.5v0.8h-1.5v3.1c0,0.7,0.2,1.1,0.8,1.1c0.2,0,0.4,0,0.6-0.1v0.8c-0.3,0.1-0.6,0.2-0.9,0.1
	c-0.4,0-0.8-0.1-1.1-0.4c-0.3-0.4-0.5-1-0.4-1.5v-3.1h-0.9v-0.8h0.9v-1.4L167.2,109.1z"/>
<path class="st1" d="M171.7,109.1c0,0.4-0.3,0.7-0.7,0.7c-0.4,0-0.6-0.3-0.6-0.7c0-0.4,0.3-0.6,0.6-0.7c0,0,0,0,0,0
	C171.4,108.4,171.7,108.7,171.7,109.1C171.7,109.1,171.7,109.1,171.7,109.1z M170.5,116.5v-5.8h1v5.8H170.5z"/>
<path class="st1" d="M179.2,113.6c0.1,1.6-1,2.9-2.6,3.1c-0.1,0-0.2,0-0.3,0c-1.5,0-2.8-1.2-2.8-2.7c0-0.1,0-0.2,0-0.3
	c-0.1-1.5,1-2.9,2.5-3c0.1,0,0.2,0,0.3,0c1.5,0,2.8,1.2,2.8,2.7C179.2,113.3,179.2,113.4,179.2,113.6z M174.6,113.6
	c0,1.3,0.7,2.2,1.8,2.2s1.8-0.9,1.8-2.2c0-1-0.5-2.2-1.7-2.2S174.6,112.5,174.6,113.6L174.6,113.6z"/>
<path class="st1" d="M186,114.9c0,0.6,0,1.1,0,1.6h-0.9l-0.1-0.9l0,0c-0.4,0.7-1.1,1.1-1.9,1.1c-0.9,0-2-0.5-2-2.5v-3.4h1v3.2
	c0,1.1,0.3,1.8,1.3,1.8c0.6,0,1.2-0.4,1.4-1c0.1-0.2,0.1-0.4,0.1-0.5v-3.5h1L186,114.9z"/>
<path class="st1" d="M188.3,115.4c0.4,0.3,0.9,0.4,1.4,0.4c0.8,0,1.1-0.4,1.1-0.9s-0.3-0.8-1.1-1.1c-1-0.4-1.5-0.9-1.5-1.6
	c0-1,0.9-1.7,1.9-1.7c0,0,0.1,0,0.1,0c0.5,0,1,0.1,1.4,0.4l-0.3,0.8c-0.4-0.2-0.8-0.3-1.2-0.3c-0.6,0-1,0.4-1,0.8s0.3,0.7,1.1,1
	c1,0.4,1.5,0.9,1.5,1.7c0,1-0.8,1.7-2.2,1.7c-0.6,0-1.1-0.1-1.6-0.4L188.3,115.4z"/>
<path class="st1" d="M197,108.6c0.7-0.1,1.5-0.2,2.2-0.2c1.2-0.1,2.3,0.3,3.3,1c0.8,0.7,1.2,1.8,1.1,2.9c0.1,1.2-0.4,2.3-1.2,3.1
	c-1,0.8-2.3,1.2-3.6,1.2c-0.6,0-1.3,0-1.9-0.1V108.6z M198,115.7c0.3,0,0.7,0.1,1,0.1c1.7,0.2,3.2-1,3.4-2.7c0-0.2,0-0.5,0-0.7
	c0-1.9-1.1-3.1-3.3-3.1c-0.4,0-0.8,0-1.2,0.1L198,115.7z"/>
<path class="st1" d="M206.7,109.1c0,0.4-0.3,0.7-0.7,0.7c-0.4,0-0.6-0.3-0.6-0.7c0-0.4,0.3-0.6,0.6-0.7c0,0,0,0,0,0
	C206.4,108.4,206.7,108.7,206.7,109.1C206.7,109.1,206.7,109.1,206.7,109.1z M205.6,116.5v-5.8h1v5.8H205.6z"/>
<path class="st1" d="M208.9,115.4c0.4,0.3,0.9,0.4,1.4,0.4c0.8,0,1.1-0.4,1.1-0.9s-0.3-0.8-1.1-1.1c-1-0.4-1.5-0.9-1.5-1.6
	c0-1,0.9-1.7,1.9-1.7c0,0,0.1,0,0.1,0c0.5,0,1,0.1,1.4,0.4l-0.3,0.8c-0.4-0.2-0.8-0.3-1.2-0.3c-0.6,0-1,0.4-1,0.8s0.3,0.7,1.1,1
	c1,0.4,1.5,0.9,1.5,1.7c0,1-0.8,1.7-2.2,1.7c-0.6,0-1.1-0.1-1.6-0.4L208.9,115.4z"/>
<path class="st1" d="M215,113.8c-0.1,1,0.7,1.9,1.7,2c0.1,0,0.2,0,0.3,0c0.5,0,1.1-0.1,1.6-0.3l0.2,0.8c-0.6,0.3-1.3,0.4-1.9,0.4
	c-1.5,0.1-2.7-1-2.8-2.5c0-0.1,0-0.3,0-0.4c0-1.7,1-3.1,2.7-3.1c1.3,0,2.4,1.1,2.4,2.5c0,0.1,0,0.2,0,0.2c0,0.2,0,0.3,0,0.5
	L215,113.8z M218.1,113c0.1-0.8-0.5-1.6-1.3-1.7c-0.1,0-0.1,0-0.2,0c-0.9,0.1-1.6,0.8-1.6,1.7L218.1,113z"/>
<path class="st1" d="M224.2,116.5l-0.1-0.7l0,0c-0.4,0.6-1.1,0.9-1.8,0.9c-0.9,0.1-1.7-0.6-1.8-1.5c0,0,0-0.1,0-0.1
	c0-1.4,1.2-2.2,3.5-2.1v-0.1c0.1-0.7-0.4-1.2-1-1.3c-0.1,0-0.2,0-0.3,0c-0.5,0-1,0.2-1.5,0.4l-0.2-0.7c0.6-0.3,1.2-0.5,1.9-0.5
	c1.8,0,2.2,1.2,2.2,2.4v2.2c0,0.5,0,0.9,0.1,1.4L224.2,116.5z M224.1,113.5c-1.1,0-2.4,0.2-2.4,1.3c0,0.5,0.3,1,0.9,1
	c0,0,0.1,0,0.1,0c0.6,0,1.2-0.4,1.4-1c0-0.1,0.1-0.2,0.1-0.3L224.1,113.5z"/>
<path class="st1" d="M227.3,115.4c0.4,0.3,0.9,0.4,1.4,0.4c0.8,0,1.1-0.4,1.1-0.9s-0.3-0.8-1.1-1.1c-1-0.4-1.5-0.9-1.5-1.6
	c0-1,0.9-1.7,1.9-1.7c0,0,0.1,0,0.1,0c0.5,0,1,0.1,1.4,0.4l-0.3,0.8c-0.4-0.2-0.8-0.3-1.2-0.3c-0.6,0-1,0.4-1,0.8s0.3,0.7,1.1,1
	c1,0.4,1.5,0.9,1.5,1.7c0,1-0.8,1.7-2.2,1.7c-0.6,0-1.1-0.1-1.6-0.4L227.3,115.4z"/>
<path class="st1" d="M233.4,113.8c-0.1,1,0.7,1.9,1.7,2c0.1,0,0.2,0,0.3,0c0.5,0,1.1-0.1,1.6-0.3l0.2,0.8c-0.6,0.3-1.3,0.4-1.9,0.4
	c-1.5,0.1-2.7-1-2.8-2.5c0-0.1,0-0.3,0-0.4c0-1.7,1-3.1,2.7-3.1c1.3,0,2.4,1.1,2.4,2.5c0,0.1,0,0.2,0,0.2c0,0.2,0,0.3,0,0.5
	L233.4,113.8z M236.5,113c0.1-0.8-0.5-1.6-1.3-1.7c-0.1,0-0.1,0-0.2,0c-0.9,0.1-1.6,0.8-1.6,1.7H236.5z"/>
<path class="st1" d="M239.3,115.4c0.4,0.3,0.9,0.4,1.4,0.4c0.8,0,1.1-0.4,1.1-0.9s-0.3-0.8-1.1-1.1c-1-0.4-1.5-0.9-1.5-1.6
	c0-1,0.9-1.7,1.9-1.7c0,0,0.1,0,0.1,0c0.5,0,1,0.1,1.4,0.4l-0.3,0.8c-0.4-0.2-0.8-0.3-1.2-0.3c-0.6,0-1,0.4-1,0.8s0.3,0.7,1.1,1
	c1,0.4,1.5,0.9,1.5,1.7c0,1-0.8,1.7-2.2,1.7c-0.6,0-1.1-0.1-1.6-0.4L239.3,115.4z"/>
</svg>
